<?xml version="1.0" encoding="utf-8"?>
<!-- Generator: Adobe Illustrator 18.1.0, SVG Export Plug-In . SVG Version: 6.00 Build 0)  -->
<svg version="1.0" id="angus" xmlns="http://www.w3.org/2000/svg" xmlns:xlink="http://www.w3.org/1999/xlink" x="0px" y="0px"
	 viewBox="0 0 344.4 67.8" enable-background="new 0 0 344.4 67.8" xml:space="preserve">
<g id="angus-logo">
	<path id="leter-n" fill="#B22C25" d="M105.8,1.8c0.4,0,0.8,0.4,1.2,1l19.4,37V17.8h-8.3c-0.6,0-0.9-0.4-0.9-1.1V3.6
		c0-1,0.3-1.9,0.5-1.9h27c0.7,0,0.8,1.3,0.8,2.1v12.4c0,1.1-0.4,1.5-0.9,1.5h-8.1v45.4c0,1.4-0.2,2.3-0.7,2.3h-23.3
		c-0.3,0-0.7-0.1-0.9-0.6L90.5,24.4v25.1h8.7c0.5,0,0.9,0.4,0.9,1.3v12.9c0,1.3-0.3,1.9-0.8,1.9H71.8c-0.4,0-0.6-0.6-0.6-1.7V51
		c0-0.7,0.2-1.5,0.9-1.5h8.2V17.8h-8.5c-0.3,0-0.6-0.3-0.6-1.5V3.1c0-0.9,0.4-1.3,0.9-1.3H105.8z"/>
	<path id="leter-g" fill="#B22C25" d="M207.3,23.3c0,1.3-0.2,2-0.4,2h-13.5c-0.4,0-0.7-0.3-1-1.3c-0.3-0.9-2.2-6.4-11-6.4
		c-8.3,0-11.6,9.9-11.6,16.9c0,14,7.8,15.5,12.8,15.5c3.2,0,4.3-4.1,4.5-7.7h-7.8c-0.6,0-1.1-0.4-1.1-1.3v-8.8c0-1.7,0.5-2,1.1-2
		h36.2c0.8,0,1.1,1.1,1.1,2v8c0,1.9-0.5,2.1-1.3,2.1h-7.8v21.3c0,1.7-0.6,1.9-1.3,1.9h-10c-0.9,0-1.3-0.2-1.8-1.4l-2.2-5.3
		c-2.9,6.4-8.8,6.7-16,6.7c-2.2,0-28.2-0.5-28.2-31c0-31.5,20.6-32.7,27.6-32.7c12.5,0,14.6,2.7,17.5,6l0.5-4.2
		c0.1-0.9,0.2-1.9,0.9-1.9h11.7c0.8,0,1.2,0.5,1.2,3.2V23.3z"/>
	<path id="leter-u" fill="#B22C25" d="M227.2,17.4h-8.5c-0.3,0-0.6-0.3-0.6-1.4V3c0-0.6,0.2-1.2,0.5-1.2H254c0.6,0,0.9,0.1,0.9,0.8
		v14.1c0,0.5-0.5,0.8-0.8,0.8h-7.8v23c0,2.5,0.6,8.5,4.8,8.5h9.6c0.6,0,3.3-2,3.3-7.7V17.4h-7.2c-0.2,0-0.5-0.4-0.5-1.1V2.5
		c0-0.3,0.3-0.8,0.5-0.8h25.5c0.7,0,1.1,0.5,1.1,2.3v12.2c0,0.7-0.2,1.1-0.5,1.1h-8.7v25.7c0,3.3-0.4,22.4-10.3,22.4h-24.7
		c-2.1,0-12.2-1.7-12.2-19.6V17.4z"/>
	<path id="leter-s" fill="#B22C25" d="M328.2,2.8c0.1-0.7,0.4-0.9,0.7-0.9h10.4c0.7,0,1,1.2,1,1.8v15.6c0,0.6-0.2,1-0.5,1h-12.5
		c-0.2,0-0.3,0-0.4-0.4c-1.2-4.8-5.4-6-6.6-6h-11.6c-0.9,0-3.7,0.3-3.7,4.3c0,4.3,4.5,4.1,6,4.1l7.2,0.2c3.7,0,12.4,1.6,14.7,2.7
		c2.2,1.2,10.1,4.7,10.1,18.3c0,19.5-15.6,22.2-21,22.2h-10.2c-4.3,0-8.8-3-11.5-5.8l-0.2,4.9c-0.1,0.7-0.3,0.9-0.6,0.9h-12.9
		c-0.3,0-0.4-0.3-0.4-1V47.2c0-0.4,0.1-1,0.4-1h13.5c0.3,0,0.5,0.3,0.6,0.9c0.8,5.6,6.9,6,7.3,6h13.6c0.4,0,2.7-0.5,2.7-3.3
		c0-3.2-2.1-4.2-2.6-4.2l-11-0.2c-2.9,0-11.6-2-15.1-4.3c-6.2-4-9.2-11.8-9.2-17.9c0-8.5,4.1-13.5,6.2-16c2.6-3.3,7.7-5.5,13.8-5.5
		h10.4c5.3,0,8.9,2.9,10.8,4.8L328.2,2.8z"/>
	<path id="leter-a" fill="#B22C25" d="M68.7,52.1h-8.4L45.2,5c-0.2-0.8-0.6-1.9-1.4-1.9H26.4c-0.2,0-0.3,0-0.5,0h-9.9
		c-1,0-1.2-0.2-1.2,0.8v12.3c0,1,0.2,2,1.2,2h4.6l-10.1,32H2.6c-0.6,0-0.8,0.2-0.8,1.2v13c0,1.2,0.7,1.8,1.6,1.8h25.4
		c0,0,0-1.1,0-2.1V51.4c0-0.5,0.7,0.7,0.2,0.7h-7.1l2.2-9h11.7l2.2,9h-6.4c-0.4,0-1-1.3-1-0.5V64c0,0.9,0.7,2.1,1.2,2.1h36.3
		c0.7,0,0.4-0.8,0.4-1.8V53.5C68.8,52.2,69.4,52.1,68.7,52.1z M26.6,37.1l3.2-11c0.1-0.3,0.5,0.2,0.6,0.5l2.9,10.5H26.6z"/>
</g>
</svg>
