<?xml version="1.0" encoding="utf-8"?>
<!-- Generator: Adobe Illustrator 18.1.0, SVG Export Plug-In . SVG Version: 6.00 Build 0)  -->
<svg version="1.0" id="angus" xmlns="http://www.w3.org/2000/svg" xmlns:xlink="http://www.w3.org/1999/xlink" x="0px" y="0px"
	 viewBox="-60 247.9 992.8 204.7" enable-background="new -60 247.9 992.8 204.7" xml:space="preserve">
<g id="layer1">
	<g id="text4033">
		<path id="path4067" fill="#B22C25" d="M83.7,251.6h-121v43h25.8l-20.9,82.6c-2.2,8.5-3.7,13.8-4.6,15.7c-2.7,6.2-7.2,10-13.5,11.6
			c-2.8,0.6-5.9,1-9.5,1v43.7h82.5v-43.7H12.3c-1.7,0-3-1.5-3.9-4.4c-0.9-2.9-1.3-5.5-1.3-7.8c0.1-1.7,0.2-3,0.2-3.9
			c0.1-0.9,0.4-1.7,1-2.6c0.6-0.9,1.4-1.3,2.4-1.3h33.5c5.4,0,8.2,6.7,8.2,20H37.7l0.1,43.7h100.5v-43.7h-10.5
			c-1.2,0-2.3-0.5-3.2-1.5c-0.9-1.1-1.6-2.2-2.1-3.5c-0.4-1.3-0.9-3.2-1.6-5.7L83.7,251.6 M14,355l13.6-61.8L41.9,355H14"/>
		<path id="path4069" fill="#B22C25" d="M360.4,251.7l-77.5-0.1v43c3.2-0.1,5.9,0.1,8.3,0.5c2.4,0.4,4.2,1.2,5.5,2.3
			c1.4,1.1,2.5,2.1,3.3,3.2c0.8,1,1.3,2.4,1.6,4.3c0.3,1.8,0.5,3.2,0.5,4.1c0.1,1,0.1,2.4,0.1,4.4v57.1l-60.4-118.8h-89.5v42.7h19.1
			v87.9c0,3.1-0.1,5.5-0.2,7.3c-0.2,1.8-0.6,3.9-1.3,6.2c-0.6,2.3-1.7,4-3,5.2c-1.3,1.2-3.2,2.3-5.8,3.2c-2.5,0.9-5.6,1.3-9.4,1.3
			v43.7h77.5v-43.7c-6.9,0-11.8-1.3-14.8-4c-2.9-2.7-4.4-7.3-4.4-14v-48.8l57.6,110.5h73.8V313c0-6,1.5-10.6,4.4-13.8
			c3-3.2,8-4.7,14.8-4.7V251.7"/>
		<path id="path4071" fill="#B22C25" d="M528.6,449.1h33.6V344.2h-76.1v37l19.5,0.1c0.6,2.4,1,5.6,1,9.9c0,5.9-2.3,10.6-6.9,14.1
			c-4.6,3.4-10,5.1-16.2,5.1c-25.6,0-38.3-17.9-38.3-53.7c0-5.1,0.2-9.8,0.5-14c0.3-4.3,0.9-9,1.8-14.1c0.9-5.2,2.2-9.7,4-13.6
			c1.9-4,4.2-7.7,6.9-11.1c2.8-3.4,6.3-6,10.7-7.8c4.4-1.9,9.4-2.8,15.1-2.8c5.1,0,9.6,0.8,13.4,2.3c3.9,1.5,7,3.4,9.3,5.7
			c2.4,2.3,4.3,5.3,6,9.1c1.6,3.8,2.8,7.5,3.5,11c0.8,3.5,1.5,7.7,2.1,12.7h35.1v-82.5h-38.3l-5.4,7.5
			c-10.4-7.4-23.9-11.1-40.5-11.1c-15.5,0-29.5,2.8-42.1,8.3c-12.5,5.5-22.8,13.1-30.8,22.6c-8,9.6-14.2,20.7-18.5,33.2
			c-4.2,12.6-6.3,26.1-6.3,40.5c0,12.5,1.7,24.1,5.1,34.8c3.5,10.7,8.4,20,14.6,28c6.2,7.9,13.7,14.6,22.3,20.2
			c8.6,5.6,18.1,9.8,28.6,12.7c10.5,2.8,21.6,4.3,33.4,4.3c20.3,0,36.3-5.3,48.1-15.8L528.6,449.1"/>
		<path id="path4073" fill="#B22C25" d="M753.2,294.5h18.7v-42.8h-79.6v42.8h20v89.3c0,7.1-2.1,12.8-6.3,16.9
			c-4.2,4.1-10.1,6.2-17.5,6.2c-4.2,0-7.9-0.9-11.1-2.7c-3.1-1.8-5.5-4.2-7.2-7.2c-1.6-3.1-2.8-6.4-3.7-9.9
			c-0.7-3.5-1.1-7.2-1.1-11.2v-81.6h18v-42.8H577.7v42.8h19.6v68.9c0,7.1,0.3,13.8,0.9,19.8c0.6,6.1,1.7,12.2,3.3,18.4
			c1.6,6.2,3.7,11.7,6.2,16.7c2.5,4.9,5.8,9.6,9.7,14c4,4.4,8.6,8,13.8,11c5.3,2.9,11.5,5.2,18.7,6.8c7.2,1.7,15.3,2.6,24.1,2.6
			c13.9,0,26.8-2.8,38.8-8.3c12-5.5,21.7-13.4,29.2-23.7c7.5-10.4,11.2-22,11.2-34.8L753.2,294.5"/>
		<path id="path4075" fill="#B22C25" d="M883.8,251.6c-2.3,3.9-3.6,6.3-3.9,7.3c-9.7-7.3-22.3-11-38-11c-18.1,0-31.9,5.7-41.4,17.2
			c-9.4,11.4-14.1,26.8-14.1,46.1c0,5.4,0.4,10.3,1.1,15c0.8,4.6,1.9,8.8,3.2,12.5c1.3,3.7,3,7.3,5.1,10.6c2.1,3.2,4.3,6.1,6.7,8.6
			c2.4,2.5,5.2,4.9,8.4,7.2c3.2,2.3,6.4,4.3,9.5,6c3.2,1.6,6.8,3.2,11,4.9c4.1,1.6,8,3,11.7,4.3c3.7,1.1,7.9,2.4,12.7,3.8
			c3,0.8,5.5,1.7,7.5,2.6c2,0.9,3.9,2.4,5.7,4.4c1.8,1.9,2.7,4.3,2.7,7.1c0,3.3-1.3,5.9-4,7.8c-2.6,1.8-5.7,2.7-9.3,2.7
			c-5.9,0-11.6-2.2-17-6.7c-5.4-4.5-9.2-9.8-11.3-15.7h-39.2v63.1h39.3l4.4-11.2c6.3,5.4,12.4,9.1,18.1,11.3
			c5.8,2.3,13.1,3.4,21.9,3.4c8.5,0,16.5-1.8,23.9-5.5c7.5-3.7,13.7-8.6,18.6-14.7c5-6.1,8.9-13.1,11.7-20.9
			c2.8-7.9,4.2-15.9,4-24.2c-0.2-8.4-1.3-16.1-3.5-22.9c-2.1-6.9-4.9-12.6-8.4-17.2c-3.5-4.6-7.5-8.7-11.9-12.2
			c-4.5-3.6-9.2-6.4-14.1-8.5c-4.9-2.2-9.8-4.1-14.7-5.8c-4.9-1.7-9.5-3.2-14-4.4c-4.4-1.3-8.3-2.6-11.7-3.9
			c-3.4-1.3-6.1-2.8-8.2-4.6c-1.9-1.8-2.9-3.9-2.9-6.3c0-3.7,1-6.5,3-8.4c2-1.9,4.8-2.8,8.4-2.8c6.1,0,11.6,2.4,16.7,7.3
			c5,4.9,8.3,10.5,9.7,16.8h37.4v-62.8L883.8,251.6"/>
	</g>
</g>
</svg>
