<?xml version="1.0" encoding="utf-8"?>
<!-- Generator: Adobe Illustrator 18.1.0, SVG Export Plug-In . SVG Version: 6.00 Build 0)  -->
<svg version="1.0" xmlns="http://www.w3.org/2000/svg" xmlns:xlink="http://www.w3.org/1999/xlink" x="0px" y="0px"
	 viewBox="0 0 274 453" enable-background="new 0 0 274 453" xml:space="preserve">
<g id="database">
	<g id="database-group">
		<path id="database-4" fill="#989898" d="M183.6,369.9c0-4-2.7-6.8-6.6-6.8h-76.1c-3.8,0-7.4,2.7-7.4,6.8v32.2c0,0,0,0,0,0
			c0,0,0-0.1,0,0.1c0,15.9,20.5,28.8,45.2,28.8c23.4,0,42.4-11.4,44.5-26c0.4-0.9,0.4-1.8,0.4-2.9V369.9z"/>
		<path id="database-3" fill="#B4B4B4" d="M183,352.4c0-3.2-3.2-3.4-7-3.4h-75.3c-3.8,0-6.7,0.2-6.7,3.4v25.6c0,0-0.1,0-0.1,0.1
			c0,0-0.1,0.1-0.1,0.1c0,12.6,19.8,22.9,44.4,22.9c23.1,0,42.2-9.1,44.2-20.7c0.4-0.7,0.6-1.5,0.6-2.3V352.4z"/>
		<path id="database-2" fill="#B4B4B4" d="M171.6,389h-66.3c-6.6,0-12-5.4-12-12v-34.5c0-6.6,5.4-12,12-12h66.3c6.6,0,12,5.4,12,12
			V377C183.6,383.6,178.2,389,171.6,389z"/>
		<ellipse id="database-1" fill="#FFFFFF" stroke="#BCBCBC" stroke-miterlimit="10" cx="138.4" cy="343.8" rx="44.7" ry="27.2"/>
	</g>
</g>
<g id="lines">
	<g id="db-line">
		<path fill="#CC4856" d="M138,344.7L138,344.7c-1.2,0-2.1-1-2.1-2.1V253c0-1.2,1-2.1,2.1-2.1h0c1.2,0,2.1,1,2.1,2.1v89.5
			C140.1,343.7,139.2,344.7,138,344.7z"/>
		<ellipse fill="#CC4856" cx="138.1" cy="343.4" rx="2.7" ry="1.4"/>
		<path fill="#B84153" d="M139.3,344.4L139.3,344.4c-0.5,0-0.8-0.4-0.8-0.8v-70.8c0-0.5,0.4-0.8,0.8-0.8l0,0c0.5,0,0.8,0.4,0.8,0.8
			v70.8C140.2,344,139.8,344.4,139.3,344.4z"/>
	</g>
	<g id="dotted-lines">
		<g id="e-commerce-line">
			<path fill="#CC4856" d="M79.5,124L79.5,124c-0.8,0.8-2.2,0.9-3,0l-3.6-3.5c-0.8-0.8-0.9-2.2,0-3l0,0c0.8-0.8,2.2-0.9,3,0l3.6,3.5
				C80.4,121.8,80.4,123.2,79.5,124z"/>
			<path fill="#CC4856" d="M88.8,133.3L88.8,133.3c-0.8,0.8-2.2,0.9-3,0l-3.6-3.5c-0.8-0.8-0.9-2.2,0-3l0,0c0.8-0.8,2.2-0.9,3,0
				l3.6,3.5C89.6,131.1,89.6,132.5,88.8,133.3z"/>
			<path fill="#CC4856" d="M98.1,142.6L98.1,142.6c-0.8,0.8-2.2,0.9-3,0l-3.6-3.5c-0.8-0.8-0.9-2.2,0-3h0c0.8-0.8,2.2-0.9,3,0
				l3.6,3.5C98.9,140.4,98.9,141.7,98.1,142.6z"/>
			<path fill="#CC4856" d="M107.4,151.9L107.4,151.9c-0.8,0.8-2.2,0.9-3,0l-3.6-3.5c-0.8-0.8-0.9-2.2,0-3v0c0.8-0.8,2.2-0.9,3,0
				l3.6,3.5C108.2,149.7,108.2,151,107.4,151.9z"/>
		</g>
		<g id="internet-line">
			<path fill="#CC4856" d="M135.7,80.4L135.7,80.4c-1.2,0-2.1-0.9-2.2-2.1l-0.1-5c0-1.2,0.9-2.1,2.1-2.2l0,0c1.2,0,2.1,0.9,2.2,2.1
				l0.1,5C137.8,79.4,136.8,80.4,135.7,80.4z"/>
			<path fill="#CC4856" d="M135.7,93.5L135.7,93.5c-1.2,0-2.1-0.9-2.2-2.1l-0.1-5c0-1.2,0.9-2.1,2.1-2.2l0,0c1.2,0,2.1,0.9,2.2,2.1
				l0.1,5C137.8,92.5,136.8,93.5,135.7,93.5z"/>
			<path fill="#CC4856" d="M135.7,106.6L135.7,106.6c-1.2,0-2.1-0.9-2.2-2.1l-0.1-5c0-1.2,0.9-2.1,2.1-2.2l0,0
				c1.2,0,2.1,0.9,2.2,2.1l0.1,5C137.8,105.7,136.8,106.6,135.7,106.6z"/>
			<path fill="#CC4856" d="M135.7,119.8L135.7,119.8c-1.2,0-2.1-0.9-2.2-2.1l-0.1-5c0-1.2,0.9-2.1,2.1-2.2l0,0
				c1.2,0,2.1,0.9,2.2,2.1l0.1,5C137.8,118.8,136.8,119.7,135.7,119.8z"/>
			<path fill="#CC4856" d="M135.7,132.9L135.7,132.9c-1.2,0-2.1-0.9-2.2-2.1l-0.1-5c0-1.2,0.9-2.1,2.1-2.2l0,0
				c1.2,0,2.1,0.9,2.2,2.1l0.1,5C137.8,131.9,136.8,132.9,135.7,132.9z"/>
			<path fill="#CC4856" d="M135.7,146L135.7,146c-1.2,0-2.1-0.9-2.2-2.1l-0.1-5c0-1.2,0.9-2.1,2.1-2.2l0,0c1.2,0,2.1,0.9,2.2,2.1
				l0.1,5C137.8,145,136.8,146,135.7,146z"/>
		</g>
		<g id="mobile-line">
			<path fill="#CC4856" d="M189.6,125.7L189.6,125.7c-0.8-0.8-0.9-2.2,0-3l3.5-3.6c0.8-0.8,2.2-0.9,3,0l0,0c0.8,0.8,0.9,2.2,0,3
				l-3.5,3.6C191.8,126.5,190.5,126.5,189.6,125.7z"/>
			<path fill="#CC4856" d="M180.3,135L180.3,135c-0.8-0.8-0.9-2.2,0-3l3.5-3.6c0.8-0.8,2.2-0.9,3,0l0,0c0.8,0.8,0.9,2.2,0,3
				l-3.5,3.6C182.5,135.8,181.2,135.8,180.3,135z"/>
			<path fill="#CC4856" d="M171.1,144.3L171.1,144.3c-0.8-0.8-0.9-2.2,0-3l3.5-3.6c0.8-0.8,2.2-0.9,3,0h0c0.8,0.8,0.9,2.2,0,3
				l-3.5,3.6C173.3,145.1,171.9,145.1,171.1,144.3z"/>
			<path fill="#CC4856" d="M161.8,153.6L161.8,153.6c-0.8-0.8-0.9-2.2,0-3l3.5-3.6c0.8-0.8,2.2-0.9,3,0l0,0c0.8,0.8,0.9,2.2,0,3
				l-3.5,3.6C164,154.4,162.6,154.4,161.8,153.6z"/>
		</g>
	</g>
</g>
<g id="consumers">
	<g id="mobile-consumers">
		<circle id="container-icon-mobile" fill="#FFFFFF" stroke="#B4B4B4" stroke-miterlimit="10" cx="49.8" cy="96.7" r="28.5"/>
		
			<text id="mobile-graph" transform="matrix(1 0 0 1 41.01 111.3673)" fill="#B4B4B4" font-family="'FontAwesome'" font-size="41.1935"></text>
	</g>
	<g id="internet-consumers">
		<circle id="container-icon-cloud" fill="#FFFFFF" stroke="#B4B4B4" stroke-miterlimit="10" cx="134.8" cy="36.7" r="28.5"/>
		
			<text id="cloud-graph" transform="matrix(1 0 0 1 121.1902 46.4175)" fill="#B4B4B4" font-family="'FontAwesome'" font-size="27.4624"></text>
	</g>
	<g id="e-commerce-consumer">
		<circle id="container-icon-e-commerce" fill="#FFFFFF" stroke="#B4B4B4" stroke-miterlimit="10" cx="218.8" cy="96.7" r="28.5"/>
		
			<text id="e-commerce-graph" transform="matrix(1 0 0 1 202.1179 110.187)" fill="#B4B4B4" font-family="'FontAwesome'" font-size="33.3263"></text>
	</g>
</g>
<g id="angus-cloud">
	<path id="cloud" fill="#FFFFFF" stroke="#BCBCBC" stroke-miterlimit="10" d="M215.3,182.9c-7.3-18.2-25-31.1-45.8-31.1
		c-3.7,0-7.4,0.4-10.8,1.2c-7.7-4.9-16.8-7.8-26.7-7.8c-17,0-32.1,8.6-40.9,21.8c-25.8,1.6-46.3,23-46.3,49.2
		c0,27.2,22.1,49.3,49.3,49.3c0.2,0,0.4,0,0.6,0c8.2,6,18.3,9.6,29.2,9.6c13.3,0,25.3-5.2,34.2-13.8c9,9.4,21.6,15.2,35.7,15.2
		c27.2,0,49.3-22.1,49.3-49.3C243,207.7,231.7,190.9,215.3,182.9z"/>
	<g id="angus-logo">
		<path fill="#B22C25" d="M127.4,210.1c0.1,0,0.2,0.1,0.3,0.3l5.3,10v-6h-2.3c-0.2,0-0.2-0.1-0.2-0.3v-3.6c0-0.3,0.1-0.5,0.1-0.5
			h7.3c0.2,0,0.2,0.3,0.2,0.6v3.4c0,0.3-0.1,0.4-0.2,0.4h-2.2v12.3c0,0.4-0.1,0.6-0.2,0.6h-6.3c-0.1,0-0.2,0-0.3-0.2l-5.8-11v6.8
			h2.4c0.1,0,0.3,0.1,0.3,0.3v3.5c0,0.3-0.1,0.5-0.2,0.5h-7.5c-0.1,0-0.2-0.2-0.2-0.5v-3.5c0-0.2,0.1-0.4,0.3-0.4h2.2v-8.6h-2.3
			c-0.1,0-0.2-0.1-0.2-0.4v-3.6c0-0.2,0.1-0.3,0.3-0.3H127.4z"/>
		<path fill="#B22C25" d="M155,215.9c0,0.3-0.1,0.5-0.1,0.5h-3.7c-0.1,0-0.2-0.1-0.3-0.3c-0.1-0.3-0.6-1.7-3-1.7
			c-2.3,0-3.2,2.7-3.2,4.6c0,3.8,2.1,4.2,3.5,4.2c0.9,0,1.2-1.1,1.2-2.1h-2.1c-0.2,0-0.3-0.1-0.3-0.3v-2.4c0-0.5,0.1-0.5,0.3-0.5
			h9.8c0.2,0,0.3,0.3,0.3,0.5v2.2c0,0.5-0.1,0.6-0.3,0.6H155v5.8c0,0.5-0.2,0.5-0.4,0.5h-2.7c-0.2,0-0.4,0-0.5-0.4l-0.6-1.4
			c-0.8,1.7-2.4,1.8-4.4,1.8c-0.6,0-7.6-0.1-7.6-8.4c0-8.5,5.6-8.9,7.5-8.9c3.4,0,4,0.7,4.7,1.6l0.1-1.1c0-0.2,0.1-0.5,0.3-0.5h3.2
			c0.2,0,0.3,0.1,0.3,0.9V215.9z"/>
		<path fill="#B22C25" d="M160.4,214.3h-2.3c-0.1,0-0.2-0.1-0.2-0.4v-3.6c0-0.2,0.1-0.3,0.1-0.3h9.6c0.2,0,0.3,0,0.3,0.2v3.8
			c0,0.1-0.1,0.2-0.2,0.2h-2.1v6.2c0,0.7,0.2,2.3,1.3,2.3h2.6c0.2,0,0.9-0.5,0.9-2.1v-6.4h-2c-0.1,0-0.1-0.1-0.1-0.3v-3.7
			c0-0.1,0.1-0.2,0.1-0.2h6.9c0.2,0,0.3,0.1,0.3,0.6v3.3c0,0.2-0.1,0.3-0.1,0.3h-2.4v7c0,0.9-0.1,6.1-2.8,6.1h-6.7
			c-0.6,0-3.3-0.5-3.3-5.3V214.3z"/>
		<path fill="#B22C25" d="M187.8,210.4c0-0.2,0.1-0.3,0.2-0.3h2.8c0.2,0,0.3,0.3,0.3,0.5v4.2c0,0.2-0.1,0.3-0.1,0.3h-3.4
			c0,0-0.1,0-0.1-0.1c-0.3-1.3-1.5-1.6-1.8-1.6h-3.2c-0.3,0-1,0.1-1,1.2c0,1.2,1.2,1.1,1.6,1.1l2,0c1,0,3.4,0.4,4,0.7
			c0.6,0.3,2.8,1.3,2.8,5c0,5.3-4.2,6-5.7,6h-2.8c-1.2,0-2.4-0.8-3.1-1.6l-0.1,1.3c0,0.2-0.1,0.2-0.2,0.2h-3.5
			c-0.1,0-0.1-0.1-0.1-0.3v-4.7c0-0.1,0-0.3,0.1-0.3h3.7c0.1,0,0.1,0.1,0.2,0.3c0.2,1.5,1.9,1.6,2,1.6h3.7c0.1,0,0.7-0.1,0.7-0.9
			c0-0.9-0.6-1.1-0.7-1.1l-3,0c-0.8,0-3.2-0.6-4.1-1.2c-1.7-1.1-2.5-3.2-2.5-4.8c0-2.3,1.1-3.7,1.7-4.3c0.7-0.9,2.1-1.5,3.7-1.5h2.8
			c1.4,0,2.4,0.8,2.9,1.3L187.8,210.4z"/>
		<path fill="#B22C25" d="M117.3,223h-2.3l-4.1-12.6c-0.1-0.2-0.2-0.4-0.4-0.4h-4.7c0,0-0.1,0-0.1,0H103c-0.3,0-1,0.4-1,0.6v3.3
			c0,0.3,0.7,0,1,0h1.2l-2.8,8h-2.1c-0.2,0-0.4,1.3-0.4,1.5v3.5c0,0.3,0.3,0,0.6,0h6.4c0,0,0,0.3,0,0v-3.4c0-0.1,0.7-0.5,0.5-0.5
			h-1.9l0.6-2h3.2l0.6,2h-1.7c-0.1,0-0.3,0.4-0.3,0.6v3.4c0,0.2,0.2,0,0.4,0h9.9c0.2,0-0.2,0.3-0.2,0v-2.9
			C117,223.8,117.5,223,117.3,223z M105.9,219l0.9-2.7c0-0.1,0.1-0.1,0.2,0l0.8,2.7H105.9z"/>
	</g>
</g>
</svg>
