<?xml version="1.0" encoding="utf-8"?>
<!-- Generator: Adobe Illustrator 18.1.0, SVG Export Plug-In . SVG Version: 6.00 Build 0)  -->
<svg version="1.0" id="Capa_1" xmlns="http://www.w3.org/2000/svg" xmlns:xlink="http://www.w3.org/1999/xlink" x="0px" y="0px"
	 viewBox="-641 19.6 499.9 933.8" enable-background="new -641 19.6 499.9 933.8" xml:space="preserve">
<g>
	<g id="database">
		<g id="database-group">
			<path id="database-4" fill="#989898" d="M-282.2,818.6c0-8.8-6-15-14.6-15h-168c-8.4,0-16.3,6-16.3,15v71.1l0,0c0,0,0-0.2,0,0.2
				c0,35.1,45.3,63.6,99.8,63.6c51.7,0,93.6-25.2,98.2-57.4c0.9-2,0.9-4,0.9-6.4L-282.2,818.6L-282.2,818.6z"/>
			<path id="database-3" fill="#B4B4B4" d="M-283.5,779.9c0-7.1-7.1-7.5-15.5-7.5h-166.2c-8.4,0-14.8,0.4-14.8,7.5v56.5
				c0,0-0.2,0-0.2,0.2l-0.2,0.2c0,27.8,43.7,50.6,98,50.6c51,0,93.2-20.1,97.6-45.7c0.9-1.5,1.3-3.3,1.3-5.1L-283.5,779.9
				L-283.5,779.9z"/>
			<path id="database-2" fill="#B4B4B4" d="M-308.7,860.7h-146.4c-14.6,0-26.5-11.9-26.5-26.5v-76.2c0-14.6,11.9-26.5,26.5-26.5
				h146.4c14.6,0,26.5,11.9,26.5,26.5v76.2C-282.2,848.8-294.1,860.7-308.7,860.7z"/>
			<ellipse id="database-1" fill="#FFFFFF" stroke="#BCBCBC" stroke-miterlimit="10" cx="-382" cy="760.9" rx="98.7" ry="60"/>
		</g>
	</g>
	<g id="lines">
		<g id="db-line">
			<path fill="#CC4856" d="M-382.9,762.9L-382.9,762.9c-2.6,0-4.6-2.2-4.6-4.6V560.5c0-2.6,2.2-4.6,4.6-4.6l0,0
				c2.6,0,4.6,2.2,4.6,4.6v197.6C-378.2,760.7-380.2,762.9-382.9,762.9z"/>
			<ellipse fill="#CC4856" cx="-382.7" cy="760.1" rx="6" ry="3.1"/>
			<path fill="#B84153" d="M-380,762.3L-380,762.3c-1.1,0-1.8-0.9-1.8-1.8V604.2c0-1.1,0.9-1.8,1.8-1.8l0,0c1.1,0,1.8,0.9,1.8,1.8
				v156.3C-378,761.4-378.9,762.3-380,762.3z"/>
		</g>
		<g id="dotted-lines">
			<g id="e-commerce-line">
				<path fill="#CC4856" d="M-512,275.7L-512,275.7c-1.8,1.8-4.9,2-6.6,0l-7.9-7.7c-1.8-1.8-2-4.9,0-6.6l0,0c1.8-1.8,4.9-2,6.6,0
					l7.9,7.7C-510,270.9-510,274-512,275.7z"/>
				<path fill="#CC4856" d="M-491.5,296.3L-491.5,296.3c-1.8,1.8-4.9,2-6.6,0l-7.9-7.7c-1.8-1.8-2-4.9,0-6.6l0,0
					c1.8-1.8,4.9-2,6.6,0l7.9,7.7C-489.7,291.4-489.7,294.5-491.5,296.3z"/>
				<path fill="#CC4856" d="M-471,316.8L-471,316.8c-1.8,1.8-4.9,2-6.6,0l-7.9-7.7c-1.8-1.8-2-4.9,0-6.6l0,0c1.8-1.8,4.9-2,6.6,0
					l7.9,7.7C-469.2,311.9-469.2,314.8-471,316.8z"/>
				<path fill="#CC4856" d="M-450.4,337.3L-450.4,337.3c-1.8,1.8-4.9,2-6.6,0l-7.9-7.7c-1.8-1.8-2-4.9,0-6.6l0,0
					c1.8-1.8,4.9-2,6.6,0l7.9,7.7C-448.7,332.5-448.7,335.3-450.4,337.3z"/>
			</g>
			<g id="internet-line">
				<path fill="#CC4856" d="M-388,179.5L-388,179.5c-2.6,0-4.6-2-4.9-4.6l-0.2-11c0-2.6,2-4.6,4.6-4.9l0,0c2.6,0,4.6,2,4.9,4.6
					l0.2,11C-383.3,177.3-385.5,179.5-388,179.5z"/>
				<path fill="#CC4856" d="M-388,208.4L-388,208.4c-2.6,0-4.6-2-4.9-4.6l-0.2-11c0-2.6,2-4.6,4.6-4.9l0,0c2.6,0,4.6,2,4.9,4.6
					l0.2,11C-383.3,206.2-385.5,208.4-388,208.4z"/>
				<path fill="#CC4856" d="M-388,237.3L-388,237.3c-2.6,0-4.6-2-4.9-4.6l-0.2-11c0-2.6,2-4.6,4.6-4.9l0,0c2.6,0,4.6,2,4.9,4.6
					l0.2,11C-383.3,235.3-385.5,237.3-388,237.3z"/>
				<path fill="#CC4856" d="M-388,266.5L-388,266.5c-2.6,0-4.6-2-4.9-4.6l-0.2-11c0-2.6,2-4.6,4.6-4.9l0,0c2.6,0,4.6,2,4.9,4.6
					l0.2,11C-383.3,264.3-385.5,266.2-388,266.5z"/>
				<path fill="#CC4856" d="M-388,295.4L-388,295.4c-2.6,0-4.6-2-4.9-4.6l-0.2-11c0-2.6,2-4.6,4.6-4.9l0,0c2.6,0,4.6,2,4.9,4.6
					l0.2,11C-383.3,293.2-385.5,295.4-388,295.4z"/>
				<path fill="#CC4856" d="M-388,324.3L-388,324.3c-2.6,0-4.6-2-4.9-4.6l-0.2-11c0-2.6,2-4.6,4.6-4.9l0,0c2.6,0,4.6,2,4.9,4.6
					l0.2,11C-383.3,322.1-385.5,324.3-388,324.3z"/>
			</g>
			<g id="mobile-line">
				<path fill="#CC4856" d="M-269,279.5L-269,279.5c-1.8-1.8-2-4.9,0-6.6l7.7-7.9c1.8-1.8,4.9-2,6.6,0l0,0c1.8,1.8,2,4.9,0,6.6
					l-7.7,7.9C-264.1,281.2-267,281.2-269,279.5z"/>
				<path fill="#CC4856" d="M-289.5,300L-289.5,300c-1.8-1.8-2-4.9,0-6.6l7.7-7.9c1.8-1.8,4.9-2,6.6,0l0,0c1.8,1.8,2,4.9,0,6.6
					l-7.7,7.9C-284.6,301.8-287.5,301.8-289.5,300z"/>
				<path fill="#CC4856" d="M-309.8,320.5L-309.8,320.5c-1.8-1.8-2-4.9,0-6.6l7.7-7.9c1.8-1.8,4.9-2,6.6,0l0,0c1.8,1.8,2,4.9,0,6.6
					l-7.7,7.9C-305,322.3-308,322.3-309.8,320.5z"/>
				<path fill="#CC4856" d="M-330.3,341.1L-330.3,341.1c-1.8-1.8-2-4.9,0-6.6l7.7-7.9c1.8-1.8,4.9-2,6.6,0l0,0c1.8,1.8,2,4.9,0,6.6
					l-7.7,7.9C-325.5,342.8-328.6,342.8-330.3,341.1z"/>
			</g>
		</g>
	</g>
	<g id="consumers">
		<g id="mobile-consumers">
			<circle id="container-icon-mobile" fill="#FFFFFF" stroke="#B4B4B4" stroke-miterlimit="10" cx="-577.6" cy="215.5" r="62.9"/>
			<g enable-background="new    ">
				<path fill="#B4B4B4" d="M-558,241.3c0,3.6-2.9,6.5-6.5,6.5h-26c-3.6,0-6.5-2.9-6.5-6.5v-52c0-3.6,2.9-6.5,6.5-6.5h26
					c3.6,0,6.5,2.9,6.5,6.5V241.3z M-562.9,197.5c0-0.9-0.8-1.6-1.6-1.6h-26c-0.9,0-1.6,0.8-1.6,1.6v35.7c0,0.9,0.8,1.6,1.6,1.6h26
					c0.9,0,1.6-0.8,1.6-1.6V197.5z M-573.4,189.4h-8.1c-0.5,0-0.8,0.4-0.8,0.8s0.4,0.8,0.8,0.8h8.1c0.5,0,0.8-0.4,0.8-0.8
					S-573,189.4-573.4,189.4z M-577.5,237.3c-2.2,0-4.1,1.8-4.1,4.1s1.8,4.1,4.1,4.1s4.1-1.8,4.1-4.1S-575.3,237.3-577.5,237.3z"/>
			</g>
		</g>
		<g id="internet-consumers">
			<circle id="container-icon-cloud" fill="#FFFFFF" stroke="#B4B4B4" stroke-miterlimit="10" cx="-389.9" cy="83" r="62.9"/>
			<g enable-background="new    ">
				<path fill="#B4B4B4" d="M-368,104.5h-36.8c-8.4,0-15.2-6.8-15.2-15.2c0-6.1,3.6-11.3,8.7-13.7c0-0.5-0.1-1-0.1-1.5
					c0-9.6,7.7-17.3,17.3-17.3c7.2,0,13.4,4.4,16,10.8c1.5-1.3,3.5-2.1,5.6-2.1c4.8,0,8.7,3.9,8.7,8.7c0,1.7-0.5,3.3-1.4,4.7
					c5.8,1.4,10,6.5,10,12.7C-355,98.6-360.9,104.5-368,104.5z"/>
			</g>
		</g>
		<g id="e-commerce-consumer">
			
				<circle id="container-icon-e-commerce" fill="#FFFFFF" stroke="#B4B4B4" stroke-miterlimit="10" cx="-204.5" cy="215.5" r="62.9"/>
			<g enable-background="new    ">
				<path fill="#B4B4B4" d="M-173,221.6c0,1.3-1,2.5-2.3,2.6l-42.9,5c0.2,0.9,0.5,1.9,0.5,2.9s-0.6,1.8-1,2.6h37.8
					c1.4,0,2.6,1.2,2.6,2.6s-1.2,2.6-2.6,2.6h-42c-1.4,0-2.6-1.2-2.6-2.6c0-1.3,1.9-4.4,2.5-5.6l-7.3-33.8h-8.4
					c-1.4,0-2.6-1.2-2.6-2.6s1.2-2.6,2.6-2.6h10.5c2.8,0,2.8,3.3,3.2,5.3h49.3c1.4,0,2.6,1.2,2.6,2.6V221.6z M-220.3,250.5
					c-2.9,0-5.3-2.3-5.3-5.3s2.3-5.3,5.3-5.3s5.3,2.3,5.3,5.3S-217.4,250.5-220.3,250.5z M-183.5,250.5c-2.9,0-5.3-2.3-5.3-5.3
					s2.3-5.3,5.3-5.3s5.3,2.3,5.3,5.3S-180.6,250.5-183.5,250.5z"/>
			</g>
		</g>
	</g>
	<g id="angus-cloud">
		<path id="cloud" fill="#FFFFFF" stroke="#BCBCBC" stroke-miterlimit="10" d="M-212.2,405.8c-16.1-40.2-55.2-68.7-101.1-68.7
			c-8.2,0-16.3,0.9-23.8,2.6c-17-10.8-37.1-17.2-58.9-17.2c-37.5,0-70.9,19-90.3,48.1c-57,3.5-102.2,50.8-102.2,108.6
			c0,60,48.8,108.8,108.8,108.8c0.4,0,0.9,0,1.3,0c18.1,13.2,40.4,21.2,64.5,21.2c29.4,0,55.8-11.5,75.5-30.5
			c19.9,20.8,47.7,33.6,78.8,33.6c60,0,108.8-48.8,108.8-108.8C-151.1,460.5-176,423.4-212.2,405.8z"/>
		<g id="angus-logo">
			<g id="angus">
				<path id="letter-a" fill="#B22C25" d="M-434.8,463.4h-24.1v8.5h5.1l-4.2,16.4c-0.4,1.7-0.7,2.7-0.9,3.1c-0.5,1.2-1.4,2-2.7,2.3
					c-0.5,0.1-1.2,0.2-1.9,0.2v8.7h16.4V494h-2c-0.3,0-0.6-0.3-0.8-0.9c-0.2-0.6-0.3-1.1-0.3-1.5c0-0.3,0-0.6,0-0.8
					c0-0.2,0.1-0.3,0.2-0.5c0.1-0.2,0.3-0.3,0.5-0.3h6.7c1.1,0,1.6,1.3,1.6,4h-2.9l0,8.7h20V494h-2.1c-0.2,0-0.5-0.1-0.6-0.3
					c-0.2-0.2-0.3-0.4-0.4-0.7c-0.1-0.3-0.2-0.6-0.3-1.1L-434.8,463.4 M-448.6,484l2.7-12.3l2.8,12.3H-448.6"/>
				<path id="letter-n" fill="#B22C25" d="M-379.7,463.4l-15.4,0v8.5c0.6,0,1.2,0,1.6,0.1c0.5,0.1,0.8,0.2,1.1,0.5
					c0.3,0.2,0.5,0.4,0.7,0.6c0.2,0.2,0.3,0.5,0.3,0.8c0.1,0.4,0.1,0.6,0.1,0.8c0,0.2,0,0.5,0,0.9V487l-12-23.6h-17.8v8.5h3.8v17.5
					c0,0.6,0,1.1,0,1.5c0,0.4-0.1,0.8-0.3,1.2c-0.1,0.5-0.3,0.8-0.6,1c-0.3,0.2-0.6,0.5-1.2,0.6c-0.5,0.2-1.1,0.3-1.9,0.3v8.7h15.4
					V494c-1.4,0-2.4-0.3-3-0.8c-0.6-0.5-0.9-1.5-0.9-2.8v-9.7l11.5,22h14.7v-27.1c0-1.2,0.3-2.1,0.9-2.7c0.6-0.6,1.6-0.9,3-0.9
					V463.4"/>
				<path id="letter-g" fill="#B22C25" d="M-346.2,502.7h6.7v-20.9h-15.1v7.4l3.9,0c0.1,0.5,0.2,1.1,0.2,2c0,1.2-0.5,2.1-1.4,2.8
					c-0.9,0.7-2,1-3.2,1c-5.1,0-7.6-3.6-7.6-10.7c0-1,0-1.9,0.1-2.8c0.1-0.9,0.2-1.8,0.4-2.8c0.2-1,0.4-1.9,0.8-2.7
					c0.4-0.8,0.8-1.5,1.4-2.2c0.5-0.7,1.3-1.2,2.1-1.5c0.9-0.4,1.9-0.6,3-0.6c1,0,1.9,0.2,2.7,0.5c0.8,0.3,1.4,0.7,1.8,1.1
					c0.5,0.5,0.9,1.1,1.2,1.8c0.3,0.8,0.6,1.5,0.7,2.2c0.2,0.7,0.3,1.5,0.4,2.5h7v-16.4h-7.6l-1.1,1.5c-2.1-1.5-4.8-2.2-8.1-2.2
					c-3.1,0-5.9,0.5-8.4,1.6c-2.5,1.1-4.5,2.6-6.1,4.5c-1.6,1.9-2.8,4.1-3.7,6.6c-0.8,2.5-1.3,5.2-1.3,8.1c0,2.5,0.3,4.8,1,6.9
					c0.7,2.1,1.7,4,2.9,5.6c1.2,1.6,2.7,2.9,4.4,4c1.7,1.1,3.6,2,5.7,2.5c2.1,0.6,4.3,0.8,6.6,0.8c4,0,7.2-1,9.6-3.1L-346.2,502.7"
					/>
				<path id="letter-u" fill="#B22C25" d="M-301.6,472h3.7v-8.5h-15.8v8.5h4v17.8c0,1.4-0.4,2.5-1.3,3.4c-0.8,0.8-2,1.2-3.5,1.2
					c-0.8,0-1.6-0.2-2.2-0.5c-0.6-0.4-1.1-0.8-1.4-1.4c-0.3-0.6-0.6-1.3-0.7-2c-0.1-0.7-0.2-1.4-0.2-2.2V472h3.6v-8.5h-21v8.5h3.9
					v13.7c0,1.4,0.1,2.7,0.2,3.9c0.1,1.2,0.3,2.4,0.7,3.7c0.3,1.2,0.7,2.3,1.2,3.3c0.5,1,1.1,1.9,1.9,2.8c0.8,0.9,1.7,1.6,2.7,2.2
					c1,0.6,2.3,1,3.7,1.4c1.4,0.3,3,0.5,4.8,0.5c2.8,0,5.3-0.5,7.7-1.6c2.4-1.1,4.3-2.7,5.8-4.7c1.5-2.1,2.2-4.4,2.2-6.9L-301.6,472
					"/>
				<path id="letter-s" fill="#B22C25" d="M-275.6,463.4c-0.5,0.8-0.7,1.3-0.8,1.5c-1.9-1.5-4.4-2.2-7.6-2.2c-3.6,0-6.3,1.1-8.2,3.4
					c-1.9,2.3-2.8,5.3-2.8,9.2c0,1.1,0.1,2.1,0.2,3c0.2,0.9,0.4,1.8,0.6,2.5c0.3,0.7,0.6,1.4,1,2.1c0.4,0.6,0.9,1.2,1.3,1.7
					c0.5,0.5,1,1,1.7,1.4s1.3,0.8,1.9,1.2c0.6,0.3,1.4,0.6,2.2,1c0.8,0.3,1.6,0.6,2.3,0.8c0.7,0.2,1.6,0.5,2.5,0.8
					c0.6,0.2,1.1,0.3,1.5,0.5c0.4,0.2,0.8,0.5,1.1,0.9c0.4,0.4,0.5,0.9,0.5,1.4c0,0.7-0.3,1.2-0.8,1.5c-0.5,0.4-1.1,0.5-1.8,0.5
					c-1.2,0-2.3-0.4-3.4-1.3c-1.1-0.9-1.8-1.9-2.3-3.1h-7.8v12.5h7.8l0.9-2.2c1.3,1.1,2.5,1.8,3.6,2.3c1.2,0.5,2.6,0.7,4.4,0.7
					c1.7,0,3.3-0.4,4.7-1.1c1.5-0.7,2.7-1.7,3.7-2.9c1-1.2,1.8-2.6,2.3-4.2c0.6-1.6,0.8-3.2,0.8-4.8c0-1.7-0.3-3.2-0.7-4.6
					c-0.4-1.4-1-2.5-1.7-3.4c-0.7-0.9-1.5-1.7-2.4-2.4c-0.9-0.7-1.8-1.3-2.8-1.7c-1-0.4-1.9-0.8-2.9-1.2c-1-0.3-1.9-0.6-2.8-0.9
					c-0.9-0.3-1.6-0.5-2.3-0.8c-0.7-0.3-1.2-0.6-1.6-0.9c-0.4-0.4-0.6-0.8-0.6-1.3c0-0.7,0.2-1.3,0.6-1.7c0.4-0.4,1-0.6,1.7-0.6
					c1.2,0,2.3,0.5,3.3,1.5c1,1,1.6,2.1,1.9,3.3h7.4v-12.5L-275.6,463.4"/>
			</g>
		</g>
	</g>
</g>
</svg>
