<?xml version="1.0" encoding="utf-8"?>
<!-- Generator: Adobe Illustrator 18.1.0, SVG Export Plug-In . SVG Version: 6.00 Build 0)  -->
<svg version="1.0" id="Angus-Guitar" xmlns="http://www.w3.org/2000/svg" xmlns:xlink="http://www.w3.org/1999/xlink" x="0px"
	 y="0px" viewBox="0 0 164.6 459.3" enable-background="new 0 0 164.6 459.3" xml:space="preserve">
<g>
	<defs>
		<path id="path4333" d="M78.3,10.4c-3.8,0-6.2,3-10.4,3.1c-3.5-0.7-3.7,0.3-3.2,3.7c0.4,2.7,0.8,5.4,1.1,8.1h-3.2
			c-0.1-0.3-0.2-0.5-0.3-0.8c-1.2-2.3-3.2-3.2-4.5-1.9c-1.3,1.3-1.3,4.2-0.1,6.4c1.2,2.3,3.2,3.1,4.5,1.8c0.6-0.6,0.9-1.5,1-2.6h3
			c0.4,4.1,0.7,8.2,0.9,12.3h-2.7c0-0.1,0-0.2,0-0.2c-0.7-2.5-2.5-3.7-4-2.7c-1.5,1-2.2,3.7-1.5,6.2c0.7,2.5,2.5,3.8,4,2.8
			c0.8-0.5,1.4-1.7,1.7-3h2.7c0.2,4.2,0.2,8.3,0.1,12.4h-2.5c-0.1-1.2-0.6-2.3-1.4-2.9c-1.4-1.1-3.3,0-4.1,2.4
			c-0.9,2.4-0.5,5.3,0.9,6.4c1.4,1.1,3.3,0,4.2-2.4c0.1-0.1,0.1-0.3,0.1-0.5h2.7c-0.1,3.2-0.3,6.3-0.5,9.4c5.5,4.2,6.4,7.7,7,12.4
			c0,0,0,0,0,0l-3.6,187.7c0.1,19-24.1,22-27.1,2.2c0-3.8-3.9-3.8-5.6-1.8c-10.6,12-14.7,22.2-14.7,31.4c0.2,28.6,8.5,29.2,8.6,44.1
			c-3,11.5-14.9,22.9-20.6,37.6c-11.7,43.2,23.3,60.9,64.4,60.3h15c41.1,0.6,76.1-17,64.4-60.3c-5.7-14.7-17.6-26-20.6-37.6
			c0.1-14.9,8.4-15.5,8.6-44.1c0.1-9.2-4.1-19.4-14.7-31.4c-1.7-1.9-5.6-2-5.6,1.8c-2.9,19.8-27.2,16.8-27.1-2.2L91.7,80.9
			c0,0,0,0,0,0c0.7-4.8,1.5-8.2,7-12.4c-0.3-3.1-0.4-6.2-0.5-9.4h2.7c0,0.1,0.1,0.3,0.1,0.5c0.9,2.4,2.8,3.5,4.2,2.4
			c1.4-1.1,1.8-3.9,0.9-6.4c-0.9-2.4-2.7-3.5-4.1-2.4c-0.8,0.6-1.2,1.6-1.4,2.9h-2.5c-0.1-4.1-0.1-8.2,0.1-12.4h2.7
			c0.2,1.3,0.8,2.5,1.7,3c1.5,1,3.3-0.3,4-2.8c0.7-2.5,0-5.3-1.5-6.2c-1.5-1-3.3,0.3-4,2.7c0,0.1,0,0.2,0,0.2h-2.7
			c0.2-4.1,0.5-8.1,0.9-12.3h3c0.1,1.1,0.4,2,1,2.6c1.3,1.3,3.3,0.4,4.5-1.8c1.2-2.3,1.1-5.2-0.1-6.4c-1.3-1.3-3.3-0.4-4.5,1.9
			c-0.1,0.3-0.2,0.5-0.3,0.8h-3.2c0.3-2.7,0.7-5.4,1.1-8.1c0.5-3.4,0.3-4.5-3.2-3.7c-4.1,0-6.5-3.1-10.4-3.1c-1.3,0-2.7,0.4-4.4,1.3
			C81,10.8,79.6,10.4,78.3,10.4L78.3,10.4z"/>
	</defs>
	<clipPath id="path4333_1_">
		<use xlink:href="#path4333"  overflow="visible"/>
	</clipPath>
	<g clip-path="url(#path4333_1_)">
		<g id="Guitar-Grup-Cup">
			<g id="bg-guitar">
				<path fill="#191A1A" d="M62.6,10.8c3.6,10.5,5.2,46.8,3.2,55.5c-0.2,0.7-1.1,3-0.7,5.8c0.8,5.6,6.7,8.4,7.2,9.8
					c0.2,0.7,19.4,0.7,19.9,0c3-4.3,7-7.9,6.5-15.2c-0.9-14.9,0.5-38.1,2.5-56.9c1.4-13.4-1-16.4-3.6-18.1
					C89.9-13.2,57.4-4.4,62.6,10.8z"/>
				<polygon fill="#0D0D0D" points="102.4,82.7 82.5,82.7 82.5,-28.3 102.4,-28.3 102.3,21.3 100.4,21.4 100,24.5 99.9,24.5 
					100.4,37.1 98.8,37 98.6,41.2 100.8,40.6 100.4,52.8 98.5,52.8 98.6,56.6 100.1,56.9 				"/>
				<path fill="#DCCDAC" d="M130.8,46.6c0,24-12.7,39-21.5,39S98.5,71.3,98.5,47.2c0-8.1,0.3-15.6,1.3-22.4c0-0.3-0.1-0.1-0.1-0.4
					c0-1.1,0.2-2.6,0.2-3.1c0-0.4,0.4,0,0.5-0.4c0,0,0,0.3,0,0.1c1.2-11.7,5.7-19.6,11-19.6C120.2,1.5,130.8,22.6,130.8,46.6z"/>
				<path fill="#DCCDAC" d="M66.7,45.8c0,24.6-6.2,44.8-15.1,44.8S34.6,70.5,34.6,45.8S44.9,2.2,53.7,2.2S66.7,21.2,66.7,45.8z"/>
				<rect x="1.4" y="81.2" fill="#D34237" width="176.2" height="494"/>
				<polygon fill="#B22C25" points="251.6,572.6 75.4,572.6 82.6,82.5 251.6,79.8 				"/>
				<rect x="73.3" y="81.2" fill="#EBECED" width="18.6" height="1.5"/>
				<g>
					<circle fill="#171718" cx="115.8" cy="393.1" r="5.5"/>
					<circle fill="#E0E1E1" cx="115.7" cy="393.2" r="3.4"/>
					<circle fill="#171718" cx="109.8" cy="411.4" r="5.5"/>
					<circle fill="#E0E1E1" cx="109.6" cy="411.4" r="3.4"/>
					<circle fill="#171718" cx="129.8" cy="397" r="5.5"/>
					<circle fill="#E0E1E1" cx="129.7" cy="397.1" r="3.4"/>
					<circle fill="#171718" cx="124" cy="415.1" r="5.5"/>
					<circle fill="#E0E1E1" cx="123.8" cy="415.1" r="3.4"/>
					<g>
						<path fill="#CACACA" d="M98.6,373.7l-33.2,1.1c-1.8,0.1-3.2-1.3-3.3-3.1l0-0.1c-0.1-1.8,1.3-3.2,3.1-3.3l33.2-1.1
							c1.8-0.1,3.2,1.3,3.3,3.1l0,0.1C101.8,372.1,100.4,373.6,98.6,373.7z"/>
						<circle fill="#DDDCDC" cx="65.1" cy="371.6" r="1.5"/>
						<circle fill="#DDDCDC" cx="97.9" cy="370.2" r="1.5"/>
					</g>
					<g>
						<g>
							<path fill="#171718" stroke="#DCDBDB" stroke-miterlimit="10" d="M100.1,295.1c8,7.8,19.5,6.1,25.5-3.2
								c1-1.6,8.2,17.4,1,34.6c-7.5,18-1.6,30.8,4.9,37.3c0.4,0.4-19.7,11.3-31.5-8.5C90.7,339.8,87.6,318.2,100.1,295.1z"/>
							<g>
								<g>
									<path fill="#171718" d="M63.3,295.7c5.3-3.3,7.5-7.3,7.6-7.3c8.3,0,16.4-0.1,23.7-0.1c0,0,1.1,2.2,7.6,7.6
										C102.7,296.3,57.8,299.2,63.3,295.7z"/>
								</g>
								<g>
									<path fill="#252626" d="M100.1,315.6H64.9c-1.3,0-2.3-1-2.3-2.3v-16.7c0-1.3,1-2.3,2.3-2.3h35.3c1.3,0,2.3,1,2.3,2.3v16.7
										C102.5,314.5,101.4,315.6,100.1,315.6z"/>
									<path fill="#EBECED" d="M96.4,313.1H68.7c-0.8,0-1.4-0.6-1.4-1.4V298c0-0.8,0.6-1.4,1.4-1.4h27.7c0.8,0,1.4,0.6,1.4,1.4
										v13.7C97.7,312.5,97.1,313.1,96.4,313.1z"/>
									<circle fill="#B7B7B8" cx="72" cy="300" r="1.2"/>
									<circle fill="#B7B7B8" cx="76.5" cy="299.9" r="1.2"/>
									<circle fill="#B7B7B8" cx="80.5" cy="299.9" r="1.2"/>
									<circle fill="#B7B7B8" cx="84.8" cy="299.9" r="1.2"/>
									<circle fill="#B7B7B8" cx="89" cy="299.9" r="1.2"/>
									<circle fill="#B7B7B8" cx="93.5" cy="299.9" r="1.2"/>
								</g>
							</g>
						</g>
						<g>
							<path fill="#252626" d="M100.2,365h-36c-1,0-1.8-0.8-1.8-1.8v-17.5c0-1,0.8-1.8,1.8-1.8h36c1,0,1.8,0.8,1.8,1.8v17.5
								C102,364.2,101.2,365,100.2,365z"/>
							<path fill="#EBECED" d="M96,362.8H68.4c-0.8,0-1.5-0.7-1.5-1.5v-13.9c0-0.8,0.7-1.5,1.5-1.5H96c0.8,0,1.5,0.7,1.5,1.5v13.9
								C97.5,362.1,96.8,362.8,96,362.8z"/>
						</g>
					</g>
					<path fill="#DDDCDC" d="M101.7,391.6l-38.5,0.7c-1.8,0-3.2-1.4-3.2-3.1l0-1c0-1.8,1.4-3.2,3.1-3.2l38.5-0.7
						c1.8,0,3.2,1.4,3.2,3.1l0,1C104.9,390.1,103.5,391.5,101.7,391.6z"/>
					<g>
						<ellipse fill="#999999" cx="99.9" cy="387.9" rx="3" ry="3.1"/>
					</g>
					<g>
						<circle fill="#999999" cx="64.6" cy="388.4" r="3"/>
					</g>
				</g>
			</g>
		</g>
	</g>
</g>
</svg>
