<?xml version="1.0" encoding="utf-8"?>
<!-- Generator: Adobe Illustrator 18.1.0, SVG Export Plug-In . SVG Version: 6.00 Build 0)  -->
<svg version="1.0" id="Capa_1" xmlns="http://www.w3.org/2000/svg" xmlns:xlink="http://www.w3.org/1999/xlink" x="0px" y="0px"
	 viewBox="0 0 324.6 197.5" enable-background="new 0 0 324.6 197.5" xml:space="preserve">
<g id="layer1">
	<path id="path48649-2" fill="#989898" d="M298.4,98c17.1,29.6,24,63.8,19.9,97.3c-10.8-13.4-25.4-20.3-34.1-24.6
		c-15.1,16.1-24.2,21-43.7,26.8c5.6-20.8,2.7-42.8-8.1-61.4L298.4,98z"/>
	<path id="path48539-3" fill="#989898" d="M26.2,98c-17.1,29.6-24,63.8-19.9,97.3c10.8-13.4,25.4-20.3,34.1-24.6
		c15.1,16.1,24.2,21,43.7,26.8c-5.6-20.8-2.7-42.8,8.1-61.4L26.2,98z"/>
	<path id="path48661-4" fill="#818181" d="M26.2,98l47.4,54.8l18.6-16.7L26.2,98z"/>
	<path id="path48449-2" fill="#B4B4B4" d="M43.5,57.7C22.6,78.6,7.6,104.6,0,133.1l73.6,19.7c4.2-15.6,12.4-29.8,23.8-41.2
		L43.5,57.7L43.5,57.7z"/>
	<path id="path48665-8" fill="#818181" d="M298.4,98L251,152.7l-18.6-16.7L298.4,98z"/>
	<path id="path48451-8" fill="#B4B4B4" d="M281.1,57.7c20.9,20.9,35.9,46.8,43.5,75.3L251,152.8c-3.9-14.7-11.5-28.2-21.9-39.2
		c-0.6-0.7-1.2-1.3-1.9-1.9L281.1,57.7z"/>
	<path id="path48663-1" fill="#989898" d="M281.1,57.7l-31.7,68.5L224,109.5L281.1,57.7z"/>
	<path id="path59850-3" fill="#989898" d="M43.5,57.7l31.7,68.5l25.3-16.8L43.5,57.7z"/>
	<path id="path48353-1" fill="#CDCCCC" d="M167.2,0.1C104.5-1.5,42.7,30.4,9.3,88.2l65.9,38.1c28-48.5,88.9-64.8,137.4-36.8
		c15.3,8.8,28,21.5,36.8,36.8l66-38.1c-15.5-26.9-37.8-49.2-64.7-64.7C224.4,8.3,195.7,0.7,167.2,0.1z"/>
	<path id="path48830-4" fill="#B22C25" d="M68.7,48.6L48.5,63.9l5.5,7.2l4.3-3.3l7,16.4c0.7,1.7,1.1,2.8,1.2,3.2
		c0.3,1.4,0.1,2.6-0.8,3.6c-0.4,0.5-0.9,0.9-1.5,1.4l5.5,7.3l13.8-10.5L78,82l-1.7,1.3c-0.3,0.2-0.7,0.1-1.2-0.2
		c-0.5-0.4-0.9-0.7-1.2-1.1c-0.2-0.3-0.4-0.5-0.5-0.7c-0.1-0.2-0.2-0.3-0.2-0.5c0-0.2,0.1-0.4,0.2-0.5l5.6-4.2
		c0.9-0.7,2.2,0.1,3.9,2.3L80.5,80l5.6,7.3l16.8-12.8l-5.5-7.3l-1.7,1.3c-0.2,0.2-0.4,0.2-0.7,0.2c-0.3-0.1-0.5-0.2-0.8-0.3
		c-0.2-0.2-0.6-0.4-1-0.8L68.7,48.6 M70.2,74.7l-5.6-12l10.2,8.5L70.2,74.7"/>
	<path id="path48832-8" fill="#B22C25" d="M136.2,17.7l-15.3,5.4l3,8.5c0.6-0.2,1.2-0.4,1.7-0.5c0.5-0.1,0.9-0.1,1.2,0.1
		c0.3,0.1,0.6,0.2,0.9,0.4c0.2,0.1,0.4,0.4,0.6,0.7c0.2,0.3,0.3,0.6,0.4,0.8c0.1,0.2,0.2,0.5,0.3,0.9l4,11.3L112.8,26l-17.7,6.3
		l3,8.4l3.8-1.3l6.2,17.3c0.2,0.6,0.4,1.1,0.5,1.5c0.1,0.4,0.2,0.8,0.2,1.3c0,0.5,0,0.9-0.2,1.2c-0.2,0.3-0.5,0.7-0.9,1
		c-0.4,0.4-1,0.7-1.8,0.9l3.1,8.6l15.3-5.4l-3.1-8.6c-1.4,0.5-2.4,0.6-3.2,0.2c-0.8-0.3-1.4-1.1-1.8-2.5l-3.4-9.6l19.1,17.8
		l14.6-5.2l-9.5-26.9c-0.4-1.2-0.5-2.2-0.1-3c0.4-0.8,1.2-1.5,2.6-2L136.2,17.7"/>
	<path id="path48834-8" fill="#B22C25" d="M182.8,60.2l7,0.7l2.3-21.9l-15.8-1.7l-0.8,7.7l4.1,0.5c0.1,0.5,0.1,1.2,0,2.1
		c-0.1,1.2-0.7,2.2-1.8,2.8c-1,0.6-2.2,0.8-3.5,0.7c-5.3-0.6-7.6-4.6-6.8-12c0.1-1.1,0.2-2,0.4-2.9c0.2-0.9,0.4-1.9,0.7-2.9
		c0.3-1.1,0.7-2,1.1-2.8c0.5-0.8,1-1.5,1.7-2.2c0.6-0.6,1.4-1.1,2.4-1.4c1-0.3,2-0.4,3.2-0.3c1.1,0.1,2,0.4,2.7,0.8
		c0.8,0.4,1.4,0.9,1.8,1.4c0.4,0.5,0.8,1.2,1,2c0.3,0.8,0.4,1.6,0.5,2.4c0.1,0.7,0.1,1.6,0.2,2.7l7.3,0.8l1.8-17.2l-8-0.8l-1.3,1.5
		c-2-1.8-4.7-2.8-8.2-3.2c-3.2-0.3-6.2-0.1-9,0.8c-2.7,0.9-5,2.2-6.9,4c-1.9,1.8-3.4,4-4.6,6.5c-1.2,2.5-1.9,5.3-2.2,8.3
		c-0.3,2.6-0.2,5.1,0.3,7.4c0.5,2.3,1.3,4.4,2.4,6.2c1.1,1.8,2.5,3.3,4.2,4.7c1.7,1.4,3.6,2.4,5.7,3.3c2.1,0.8,4.4,1.4,6.9,1.6
		c4.2,0.4,7.7-0.3,10.4-2.2L182.8,60.2"/>
	<path id="path48836-3" fill="#B22C25" d="M241,47.9l3.5,1.8l4.1-8L233.8,34l-4.1,8l3.7,1.9l-8.6,16.6c-0.7,1.3-1.6,2.2-2.8,2.5
		c-1.2,0.4-2.5,0.2-3.9-0.5c-0.8-0.4-1.4-0.9-1.8-1.6c-0.4-0.6-0.6-1.3-0.6-2c0-0.7,0.1-1.5,0.3-2.2c0.2-0.7,0.5-1.4,0.9-2.2
		l7.8-15.2l3.4,1.7l4.1-8L212.5,23l-4.1,8l3.6,1.9l-6.6,12.8c-0.7,1.3-1.3,2.6-1.7,3.8c-0.5,1.2-0.8,2.4-1.2,3.7
		c-0.3,1.3-0.4,2.5-0.4,3.7c0,1.2,0.1,2.3,0.5,3.5c0.3,1.2,0.8,2.3,1.5,3.4c0.7,1.1,1.6,2.1,2.8,3.1c1.2,1,2.6,1.9,4.2,2.8
		c2.6,1.3,5.3,2.1,8,2.2c2.8,0.1,5.3-0.4,7.7-1.6c2.4-1.2,4.2-3,5.4-5.4L241,47.9"/>
	<path id="path48838-5" fill="#B22C25" d="M275,65c-0.9,0.2-1.5,0.3-1.7,0.4c-0.2-2.5-1.5-5-3.7-7.4c-2.6-2.8-5.4-4.1-8.5-3.9
		c-3.1,0.2-6.1,1.6-9.1,4.4c-0.8,0.8-1.5,1.5-2.2,2.3c-0.6,0.8-1.1,1.5-1.5,2.3c-0.4,0.7-0.7,1.5-0.9,2.3c-0.2,0.8-0.3,1.5-0.4,2.3
		c-0.1,0.7,0,1.5,0.1,2.3c0.1,0.8,0.3,1.6,0.4,2.3c0.2,0.7,0.5,1.5,0.8,2.4c0.3,0.9,0.7,1.7,1,2.4c0.3,0.7,0.7,1.6,1.2,2.5
		c0.3,0.6,0.5,1.1,0.7,1.5c0.2,0.4,0.2,0.9,0.1,1.5c0,0.6-0.3,1-0.7,1.4c-0.5,0.5-1.1,0.6-1.8,0.5c-0.6-0.1-1.2-0.5-1.7-1
		c-0.8-0.9-1.3-2.1-1.4-3.6c-0.1-1.5,0.2-2.8,0.8-4l-5.6-6l-9.7,9l5.6,6.1l2.3-0.9c0.1,1.7,0.4,3.2,0.8,4.4c0.5,1.2,1.3,2.5,2.6,3.9
		c1.2,1.3,2.6,2.3,4.2,2.9c1.6,0.6,3.3,0.9,4.9,0.8c1.7-0.1,3.3-0.5,4.9-1.2c1.6-0.7,3-1.6,4.3-2.8c1.3-1.2,2.3-2.5,3-3.8
		c0.8-1.3,1.2-2.5,1.5-3.7c0.2-1.2,0.3-2.4,0.2-3.6c-0.1-1.2-0.3-2.3-0.7-3.4c-0.4-1.1-0.8-2.1-1.2-3.1c-0.4-1-0.9-1.9-1.3-2.8
		c-0.4-0.9-0.8-1.6-1.1-2.4c-0.3-0.7-0.4-1.3-0.4-1.9c0-0.6,0.2-1,0.6-1.3c0.6-0.5,1.2-0.8,1.7-0.7c0.6,0,1.1,0.3,1.6,0.9
		c0.9,0.9,1.3,2.1,1.2,3.6c0,1.5-0.4,2.8-1.2,3.9l5.3,5.8l9.7-8.9L275,65"/>
</g>
</svg>
